#!OML:ASF G:\JayActor3\Patient Classification 1\Patient 1\Session 2\male.ASF
:FULLY-SPECIFIED
:DEGREES
2970
root 23.7309 16.4021 -6.12095 305.247 -258.986 -769.425
lowerback 1.94993 -0.530239 -11.0167
upperback -2.98292 -1.11998 -2.64013
thorax -4.07671 -0.207227 3.45683
lowerneck -3.54602 -3.5972 -3.50646
upperneck 8.54707 -5.2417 8.71197
head 3.44362 -2.29714 2.99928
rclavicle -9.59136e-015 2.8625e-014
rhumerus -26.4128 31.1544 -82.6859
rradius 126.663
rwrist -29.4197
rhand -40.805 23.7564
rfingers 7.12502
rthumb -13.7437 -5.7697
lclavicle -9.59136e-015 2.8625e-014
lhumerus -44.5979 -77.3057 131.009
lradius 88.3746
lwrist 43.4472
lhand -18.7584 12.5909
lfingers 7.12502
lthumb 7.53835 42.4366
rfemur -39.8172 0.557153 13.0718
rtibia 60.9775
rfoot -0.569438 -0.0590019
rtoes 5.27455
lfemur 33.3052 4.96326 -30.4872
ltibia -3.81667e-014
lfoot 1.35411 -1.84684
ltoes -18.455
2971
root 23.9861 16.3923 -6.11969 304.959 -259.157 -769.703
lowerback 1.41581 -0.499264 -10.9483
upperback -3.00932 -0.999435 -2.67529
thorax -3.81775 -0.160383 3.37076
lowerneck -3.46378 -3.59237 -3.52622
upperneck 8.85431 -5.24849 8.68256
head 3.52207 -2.29505 2.99399
rclavicle -3.13086e-015 3.08116e-014
rhumerus -26.6753 31.2101 -82.8092
rradius 126.779
rwrist -29.3683
rhand -40.8101 23.8082
rfingers 7.12502
rthumb -13.7486 -5.71758
lclavicle -3.13086e-015 3.08116e-014
lhumerus -45.6749 -77.2874 131.882
lradius 88.4348
lwrist 43.5036
lhand -18.8084 12.5821
lfingers 7.12502
lthumb 7.49006 42.4295
rfemur -36.3725 0.853422 13.9165
rtibia 57.1542
rfoot -1.57438 0.220285
rtoes 10.0277
lfemur 34.0126 5.15292 -29.9524
ltibia -3.81667e-014
lfoot 3.84137 -2.04327
ltoes -18.3097
2972
root 24.2417 16.3858 -6.12084 304.483 -259.404 -770.15
lowerback 0.935908 -0.436409 -10.7649
upperback -3.07317 -0.845207 -2.7217
thorax -3.63427 -0.0952235 3.21051
lowerneck -3.36075 -3.58988 -3.55124
upperneck 9.24079 -5.26258 8.66366
head 3.62174 -2.29408 2.99276
rclavicle 1.44616e-014 -4.37326e-015
rhumerus -26.9017 31.2374 -82.896
rradius 126.883
rwrist -29.3072
rhand -40.8214 23.8285
rfingers 7.12502
rthumb -13.7595 -5.69651
lclavicle 1.44616e-014 -4.37326e-015
lhumerus -46.7855 -77.2636 132.779
lradius 88.4838
lwrist 43.4835
lhand -18.7659 12.5644
lfingers 7.12502
lthumb 7.53109 42.4103
rfemur -33.108 1.15473 14.8157
rtibia 53.9408
rfoot -3.74418 0.473801
rtoes 13.1036
lfemur 32.1428 5.48493 -29.3252
ltibia 4.67616
lfoot 4.73762 -2.51323
ltoes -17.6232
2973
root 24.4947 16.3866 -6.12287 303.827 -259.765 -770.725
lowerback 0.572512 -0.333894 -10.4432
upperback -3.1564 -0.655804 -2.76178
thorax -3.54104 -0.012047 2.98212
lowerneck -3.25966 -3.58871 -3.58933
upperneck 9.68022 -5.2807 8.65603
head 3.73864 -2.29316 2.997
rclavicle 4.87022e-015 1.78906e-014
rhumerus -27.0498 31.2366 -82.9476
rradius 126.944
rwrist -29.2198
rhand -40.8445 23.8137
rfingers 7.12502
rthumb -13.7817 -5.70984
lclavicle 4.87022e-015 1.78906e-014
lhumerus -47.7595 -77.2268 133.545
lradius 88.5106
lwrist 43.4192
lhand -18.6568 12.552
lfingers 7.12502
lthumb 7.63642 42.3942
rfemur -30.0933 1.66155 15.7576
rtibia 51.2945
rfoot -6.57095 0.272221
rtoes 15.0759
lfemur 27.9271 5.99264 -28.5391
ltibia 13.6298
lfoot 4.38496 -3.3328
ltoes -16.2653
2974
root 24.741 16.3958 -6.12393 302.999 -260.303 -771.382
lowerback 0.388766 -0.181869 -9.94638
upperback -3.22783 -0.424933 -2.76588
thorax -3.53948 0.0892688 2.6955
lowerneck -3.20243 -3.58668 -3.63377
upperneck 10.1376 -5.29736 8.64601
head 3.8685 -2.29034 3.00104
rclavicle 4.87022e-015 -2.34566e-014
rhumerus -27.0709 31.2052 -82.9567
rradius 126.935
rwrist -29.1127
rhand -40.8662 23.777
rfingers 7.12502
rthumb -13.8027 -5.74511
lclavicle 4.87022e-015 -2.34566e-014
lhumerus -48.4177 -77.1637 134.019
lradius 88.4978
lwrist 43.3468
lhand -18.5142 12.5872
lfingers 7.12502
lthumb 7.77403 42.4243
rfemur -27.3448 2.54814 16.7889
rtibia 49.1177
rfoot -9.43781 -0.54579
rtoes 16.7199
lfemur 25.1617 6.67965 -27.5287
ltibia 19.9484
lfoot 5.87651 -3.56811
ltoes -14.0622
2975
root 24.9758 16.412 -6.12308 302.095 -261.057 -771.999
lowerback 0.427441 0.0143524 -9.2434
upperback -3.2551 -0.160774 -2.70915
thorax -3.61611 0.201178 2.35785
lowerneck -3.21385 -3.57932 -3.67083
upperneck 10.5474 -5.30268 8.61635
head 3.99443 -2.28289 2.9974
rclavicle 1.68967e-014 4.41302e-014
rhumerus -26.9336 31.1527 -82.9249
rradius 126.842
rwrist -29.0034
rhand -40.8899 23.7072
rfingers 7.12502
rthumb -13.8255 -5.81337
lclavicle 1.68967e-014 4.41302e-014
lhumerus -48.6508 -77.0619 134.103
lradius 88.4356
lwrist 43.3241
lhand -18.4318 12.6897
lfingers 7.12502
lthumb 7.85356 42.5239
rfemur -24.8472 3.88646 17.9658
rtibia 47.3
rfoot -11.8366 -1.86614
rtoes 17.8647
lfemur 22.5864 7.46977 -26.276
ltibia 25.9692
lfoot 8.20047 -3.33655
ltoes -10.9746
